<?xml version="1.0" encoding="utf-8"?>
<!-- Generator: Adobe Illustrator 26.3.1, SVG Export Plug-In . SVG Version: 6.00 Build 0)  -->
<svg version="1.1" id="Layer_1" xmlns="http://www.w3.org/2000/svg" xmlns:xlink="http://www.w3.org/1999/xlink" x="0px" y="0px"
	 viewBox="0 0 362 27" style="enable-background:new 0 0 362 27;" xml:space="preserve">
<style type="text/css">
	.st0{fill:#FFFFFF;}
	.st1{fill:none;stroke:#000000;stroke-width:7;stroke-miterlimit:10;}
</style>
<g>
	<path class="st0" d="M0,3.5c20.11,0,20.11,20,40.22,20c20.11,0,20.11-20,40.22-20c20.11,0,20.11,20,40.22,20
		c20.11,0,20.11-20,40.22-20c20.11,0,20.11,20,40.22,20c20.11,0,20.11-20,40.22-20c20.11,0,20.11,20,40.22,20
		c20.11,0,20.11-20,40.23-20s20.11,20,40.23,20"/>
	<path class="st1" d="M0,3.5c20.11,0,20.11,20,40.22,20c20.11,0,20.11-20,40.22-20c20.11,0,20.11,20,40.22,20
		c20.11,0,20.11-20,40.22-20c20.11,0,20.11,20,40.22,20c20.11,0,20.11-20,40.22-20c20.11,0,20.11,20,40.22,20
		c20.11,0,20.11-20,40.23-20s20.11,20,40.23,20"/>
</g>
</svg>
